<svg xmlns="http://www.w3.org/2000/svg" xmlns:xlink="http://www.w3.org/1999/xlink" viewBox="0,0,256,256" width="24px" height="24px" fill-rule="nonzero"><g fill="#dc143c" fill-rule="nonzero" stroke="none" stroke-width="1" stroke-linecap="butt" stroke-linejoin="miter" stroke-miterlimit="10" stroke-dasharray="" stroke-dashoffset="0" font-family="none" font-weight="none" font-size="none" text-anchor="none" style="mix-blend-mode: normal"><g transform="scale(10.66667,10.66667)"><path d="M11.14,14.42l-1.14,1.94c-0.56,-2.03 -2.43,-3.52 -4.64,-3.52c-0.37,0 -0.74,0.04 -1.08,0.13l3.09,-5.24c0.11,0.37 0.26,0.74 0.46,1.09zM5.36,14.344c-1.838,0 -3.328,1.49 -3.328,3.328c0,1.838 1.49,3.328 3.328,3.328c1.838,0 3.328,-1.49 3.328,-3.328c0,-1.838 -1.49,-3.328 -3.328,-3.328zM15.79,19.336c0.919,1.592 2.994,2.122 4.546,1.218c1.589,-0.925 2.137,-2.954 1.218,-4.546l-6.656,-11.264c-0.919,-1.592 -2.988,-2.122 -4.546,-1.218c-1.59,0.922 -2.137,2.954 -1.218,4.546z"></path></g></g></svg>