<svg xmlns="http://www.w3.org/2000/svg" version="1.0" width="512.000000pt" height="512.000000pt" viewBox="0 0 512.000000 512.000000" preserveAspectRatio="xMidYMid meet">

<g transform="translate(0.000000,512.000000) scale(0.100000,-0.100000)" fill="#bababa" stroke="none">
<path d="M2150 5109 c-379 -9 -712 -35 -934 -74 -310 -55 -593 -214 -800 -450 -260 -298 -354 -598 -397 -1270 -15 -235 -15 -1277 0 -1510 40 -626 88 -825 264 -1093 213 -325 531 -547 892 -622 251 -53 750 -83 1365 -83 995 0 1458 57 1771 219 208 108 416 301 547 509 52 83 119 234 147 330 78 271 109 713 107 1560 -1 933 -41 1295 -176 1605 -169 385 -549 698 -967 794 -201 47 -516 73 -1039 86 -201 5 -387 9 -415 8 -27 -1 -192 -5 -365 -9z m1450 -783 l0 -374 28 -6 c15 -3 56 -8 92 -11 95 -9 315 -44 388 -60 198 -46 354 -212 417 -445 141 -528 149 -1130 20 -1675 -70 -300 -256 -487 -524 -530 -236 -37 -700 -65 -1080 -65 -254 0 -265 -1 -300 -22 -20 -12 -171 -112 -336 -221 -396 -264 -783 -517 -790 -517 -3 0 -5 172 -5 383 l0 383 -201 33 c-360 59 -440 87 -551 190 -96 88 -155 231 -212 512 -108 535 -79 1129 79 1612 30 93 54 131 138 215 109 111 215 150 532 196 252 37 686 65 1003 66 112 0 181 4 195 12 12 6 103 63 202 126 99 63 245 156 325 207 227 144 388 247 480 308 47 31 88 56 93 57 4 0 7 -168 7 -374z" fill="#bababa"/>
<path d="M2130 3684 c-155 -7 -399 -26 -523 -40 -196 -22 -475 -72 -523 -94 -108 -47 -158 -111 -203 -255 -108 -354 -126 -817 -50 -1255 42 -244 82 -353 152 -417 72 -67 127 -84 393 -122 365 -54 816 -76 1384 -68 586 8 1029 49 1262 118 79 23 150 84 187 162 26 55 74 275 97 452 22 168 29 491 15 655 -18 204 -81 493 -127 582 -23 44 -73 97 -118 123 -74 43 -443 105 -846 141 -165 15 -902 27 -1100 18z m730 -154 c237 -31 449 -136 620 -309 163 -163 264 -354 306 -578 24 -130 15 -365 -19 -489 -25 -89 -77 -228 -83 -222 -1 2 -8 44 -14 93 -37 284 -212 536 -455 654 -81 40 -83 42 -100 93 -53 166 -171 305 -315 376 -126 62 -192 77 -345 77 -105 0 -145 -5 -208 -23 -150 -43 -287 -129 -398 -250 l-61 -67 24 55 c40 89 108 194 177 270 212 236 552 361 871 320z m-1375 -604 c67 -207 222 -385 421 -482 86 -42 92 -47 103 -87 22 -72 80 -173 137 -235 56 -62 165 -140 231 -167 183 -72 409 -73 576 -3 131 55 265 158 366 283 41 50 36 27 -19 -91 -73 -159 -191 -296 -336 -393 -247 -165 -588 -206 -883 -104 -407 139 -713 515 -762 937 -20 172 10 369 84 545 l32 76 12 -100 c7 -55 24 -135 38 -179z m1227 96 c77 -26 149 -74 209 -141 151 -169 168 -399 43 -587 -36 -55 -121 -131 -176 -160 -46 -24 -177 -54 -234 -54 -223 0 -423 153 -479 365 -67 258 89 516 355 590 69 19 203 13 282 -13z" fill="#bababa"/>
<path d="M2375 2690 l-129 -129 20 -22 c49 -57 233 -239 241 -239 14 0 256 247 252 258 -4 11 -93 104 -196 204 l-58 58 -130 -130z" fill="#bababa"/>
</g>
</svg>